<?xml version="1.0" encoding="utf-8"?>
<!-- Generator: Adobe Illustrator 15.0.0, SVG Export Plug-In . SVG Version: 6.00 Build 0)  -->
<!DOCTYPE svg PUBLIC "-//W3C//DTD SVG 1.1//EN" "http://www.w3.org/Graphics/SVG/1.1/DTD/svg11.dtd">
<svg version="1.1" xmlns="http://www.w3.org/2000/svg" xmlns:xlink="http://www.w3.org/1999/xlink" x="0px" y="0px"
	 width="392.721px" height="494px" viewBox="0 -108.529 392.721 494" enable-background="new 0 -108.529 392.721 494"
	 xml:space="preserve">
<g id="Layer_3_1_">
	<ellipse fill="#003FAF" cx="189.361" cy="201.471" rx="18.589" ry="10.274"/>
	<path fill="#FDDEBE" d="M331.477,369.471c0,0,16.79-9.359,17.163-28.015s-9.779-59.985-9.779-59.985s-28.676-23.682-30.307-26.829
		s-8.438-18.753-10.627-23.171s-15.058-23.85-22.3-27.403s-17.188-7.308-23.478-8.452s-21.399-3.802-26.061-4.419
		s-17.276-5.088-21.096-1.373s-3.01,8.725,0,12.647s20.521,8.285,24.252,9.274s15.671,4.347,16.79,7.332s2.077,12.711,0.48,18.217
		s-10.152,10.511-12.793,13.125s-13.109,2.048-16.706,1.382s-14.271,0.536-17.993-1.382s-8.506-6.505-9.663-12.58
		s-2.072-11.752-3.545-17.642s-3.889-12.22-6.977-14.571s-9.438-6.066-10.409-3.155s-3.731,16.234-5.224,19.592s0,19.028,0,19.028
		s-2.292,21.931-1.333,26.392s6.93,27.709,6.93,27.709l1.52,12.279c0,0,16.746,21.521,17.538,22.013s10.255,7.496,15,8.242
		s29.37,9.7,36.086,8.581s17.164,1.716,22.014,2.164s12.312,0.821,19.028,1.567s8.954,1.119,13.805,2.238s22.76,5.596,25.371,7.089
		S331.477,369.471,331.477,369.471z"/>
</g>
<g id="Layer_1">
	<g id="Layer_3">
		<path fill="#ABABAB" d="M182.142,155.471c0,0,56.187-24.5,75.282-57.772c9.14-15.925,19.437-62.043,19.437-62.043l-174,4.146
			c0,0-5.177,50.411-19.093,73.43c-21.907,36.239-63.109,61.239-63.109,61.239L182.142,155.471z"/>
	</g>
	<g id="Layer_1_1_">
		<g>
			<g>
				<path fill="#FDDEBE" d="M324.433-89.599c0,0-3.328,11.904-21.057,17.136c-17.729,5.233-48.782,8.325-56.535,8.818
					c-7.754,0.493-31.321,2.801-38.188,5.215c-6.867,2.414-20.223,7.5-26.511,17.048c-6.289,9.548-14.531,29.591-18.186,39.348
					c-3.654,9.756-11.479,33.544-11.606,37.69c-0.127,4.146,83.881,4.146,83.881,4.146s-30.688,18.835-35.848,24.767
					s-17.516,21.114-18.242,34.513c-0.726,13.399,4.267,16.341,10.512,14.078c6.245-2.264,73.964-35.478,82.794-40.031
					s26.355-18.553,37.334-33.326c10.977-14.775,27.99-29.124,35.002-34.054c7.012-4.929,36.246-40.254,30.969-55.278
					C373.474-64.553,324.433-89.599,324.433-89.599z"/>
				<g>
					<g>
						<g>
							<path fill="#231F20" d="M321.741-89.635c-11.324,16.384-30.456,20.809-49.178,22.73c-19.23,1.973-38.695,1.431-57.695,5.407
								c-8.352,1.748-16.54,4.692-23.741,9.315c-8.004,5.139-13.245,12.521-18.105,20.536
								c-12.815,21.132-23.441,46.798-23.693,71.826c-0.023,2.353,5.77,1.088,5.788-0.753c0.255-25.326,11.127-50.949,24.066-72.284
								c5.178-8.539,10.99-15.514,19.911-20.262c8.192-4.36,17.69-6.083,26.796-7.26c33.335-4.311,79.215,2.675,101.233-29.183
								C328.61-91.712,322.784-91.145,321.741-89.635L321.741-89.635z"/>
						</g>
					</g>
					<g>
						<g>
							<path fill="#231F20" d="M181.642,16.621c5.75,5.173,16.527,4.97,23.713,5.105c9.484,0.178,19.97-0.439,28.774-4.285
								c3.702-1.617,0.314-3.588-2.307-2.443c-7.397,3.231-16.287,3.442-24.228,3.387c-5.957-0.042-15.787,0.26-20.575-4.049
								C185.473,12.945,180.035,15.175,181.642,16.621L181.642,16.621z"/>
						</g>
					</g>
					<g>
						<g>
							<path fill="#231F20" d="M202.114,19.493c-4.071,4.231-6.785,9.536-8.979,14.93c-0.54,1.327,5.086,0.695,5.742-0.92
								c2.101-5.163,4.638-10.205,8.534-14.255c0.948-0.985-0.815-1.235-1.437-1.207C204.672,18.101,203.047,18.522,202.114,19.493
								L202.114,19.493z"/>
						</g>
					</g>
					<g>
						<g>
							<path fill="#231F20" d="M345.922,4.647c-10.347,6.901-20.713,14.075-28.116,24.25c-6.406,8.805-12.494,17.966-19.864,26.011
								c-7.563,8.255-16.916,13.969-27.188,18.252c-13.484,5.622-26.169,12.266-38.929,19.366
								c-6.125,3.408-12.299,6.717-18.625,9.738c-5.638,2.692-11.479,4.738-16.858,7.947c-2.453,1.463-3.262,0.903-5.342-1.14
								c-2.588-2.544-4.441-5.576-5.445-9.052c-1.879-6.502,0.927-15.097,4.245-20.674c2.87-4.824,7.702-8.191,12.234-11.301
								c4.336-2.976,8.655-5.958,13.138-8.709c8.872-5.445,18.443-10.714,25.103-18.921c6.453-7.954,5.864-16.514-1.759-23.163
								c-6.948-6.06-19.606-10.306-22.099-20.062c-0.606-2.375-6.405-0.837-5.795,1.553c3.734,14.62,32.21,17.585,27.94,34.579
								C236,43.514,222.894,50.145,214.703,55.147c-8.604,5.255-17.606,10.623-25.088,17.425
								c-7.936,7.215-12.449,20.03-9.431,30.475c2.408,8.332,10.284,14.741,18.407,10.214c11.593-6.46,24.009-11.351,35.667-17.812
								c12.755-7.07,25.377-13.927,38.929-19.366c14.794-5.938,26.544-15.375,36.263-27.896
								c5.302-6.831,10.024-14.097,15.351-20.907c6.619-8.463,16.012-14.536,24.846-20.429
								C352.924,4.664,348.031,3.24,345.922,4.647L345.922,4.647z"/>
						</g>
					</g>
					<g>
						<g>
							<path fill="#231F20" d="M222.352,19.493c-4.071,4.231-6.787,9.535-8.979,14.93c-0.54,1.327,5.086,0.695,5.742-0.92
								c2.099-5.163,4.638-10.206,8.534-14.255c0.948-0.985-0.815-1.235-1.437-1.207C224.91,18.101,223.285,18.522,222.352,19.493
								L222.352,19.493z"/>
						</g>
					</g>
					<g>
						<g>
							<path fill="#231F20" d="M197.928,101.698c0.865-2.593,2.835-6.098,5.822-6.69c3.466-0.688,5.308,3.169,5.898,5.894
								c0.426,1.966,6.24,0.498,5.795-1.553c-1.199-5.536-5.354-8.169-10.885-7.485c-5.854,0.724-10.597,5.113-12.422,10.579
								C191.486,104.393,197.288,103.612,197.928,101.698L197.928,101.698z"/>
						</g>
					</g>
					<path fill="none" stroke="#231F20" stroke-width="3" stroke-miterlimit="10" d="M152.35,35.656"/>
				</g>
			</g>
		</g>
	</g>
	<g>
		<g>
			<path d="M167.186,202.499c-26.238,30.081-3.543,76.871,33.867,82.421c1.632,0.242,6.8-2.426,3.615-2.898
				c-35.926-5.329-57.046-51.019-32.133-79.579C174.066,200.687,168.299,201.224,167.186,202.499L167.186,202.499z"/>
		</g>
	</g>
	<g>
		<g>
			<path d="M169.52,202.743c11.425,4.244,15.203,17.089,12.461,28.159c-0.437,1.763,5.334,0.853,5.759-0.863
				c2.962-11.96-1.336-25.309-13.539-29.841C172.68,199.633,167.4,201.956,169.52,202.743L169.52,202.743z"/>
		</g>
	</g>
	<g>
		<g>
			<path d="M182.159,232.567c3.777,4.793,6.801,9.901,8.803,15.681c0.647,1.867,6.395,0.178,5.796-1.553
				c-2.082-6.009-5.272-11.339-9.197-16.319C186.433,228.944,180.859,230.915,182.159,232.567L182.159,232.567z"/>
		</g>
	</g>
	<g>
		<g>
			<path d="M193.607,250.605c15.745,0.226,41.654,13.184,52.586-4.107c4.382-6.931,5.979-18.445,1.62-25.657
				c-3.738-6.188-11.913-8.138-18.476-9.508c-7.092-1.48-14.856-3.062-20.592-7.769c-2.847-2.337-3.669-5.684-2.99-9.18
				c0.133-0.687,1.479-2.572,0.392-1.939c0.327-0.19,0.766-0.238,1.134-0.294c1.931-0.293,3.93-0.211,5.87-0.119
				c8.692,0.412,17.35,2.066,25.903,3.573c9.559,1.684,18.939,3.312,27.989,7.006c18.308,7.474,25.955,24.778,33.357,41.792
				c3.303,7.593,6.938,15.019,12.056,21.572c6.637,8.499,15.297,12.74,24.734,17.458c2.397,1.199,6.648-2.271,3.34-3.924
				c-6.859-3.431-13.519-6.491-19.058-11.925c-4.23-4.149-7.507-9.177-10.341-14.346c-5.419-9.888-8.896-20.704-14.421-30.553
				c-5.652-10.076-13.278-17.752-23.666-22.813c-9.092-4.431-19.057-6.274-28.934-7.967c-8.285-1.42-16.55-2.95-24.92-3.797
				c-5.099-0.516-13.74-1.913-17.661,2.464c-4.665,5.207-1.097,13.191,3.38,16.865c5.523,4.533,13.38,6.164,20.179,7.653
				c5.805,1.271,12.072,2.312,16.329,6.871c5.521,5.912,2.657,16.468-0.243,22.876c-3.637,8.033-14.029,6.312-21.033,5.21
				c-8.691-1.368-17.182-3.584-26.027-3.711C190.788,246.29,189.684,250.548,193.607,250.605L193.607,250.605z"/>
		</g>
	</g>
	<g>
		<g>
			<path d="M156.963,244.247c0.05,14.833,1.563,30.312,8.653,43.603c7.021,13.164,19.828,19.975,34.417,20.996
				c1.497,0.104,6.736-2.534,3.656-2.75c-15.329-1.072-27.157-8.927-33.789-22.788c-5.959-12.457-7.096-27.006-7.142-40.613
				C162.754,241.314,156.956,242.289,156.963,244.247L156.963,244.247z"/>
		</g>
	</g>
	<g>
		<g>
			<path d="M161.935,285.731c0.314,21.171,16.222,51.312,40.63,49.72c3.162-0.207,4.562-4.218,0.59-3.959
				c-21.221,1.385-35.106-28.507-35.37-46.28C167.743,282.318,161.9,283.332,161.935,285.731L161.935,285.731z"/>
		</g>
	</g>
	<g>
		<g>
			<path d="M332.097,367.809c-24.415-19.098-56.217-19.042-85.61-23.135c-10.557-1.47-21.188-2.169-31.677-4.148
				c-8.066-1.521-21.994-4.178-24.051-13.831c-0.568-2.666-6.374-1.158-5.796,1.553c1.876,8.802,11.964,12.417,19.607,14.569
				c11.221,3.16,22.989,4.098,34.53,5.382c13.309,1.481,26.567,3.517,39.877,5.082c17.801,2.094,34.323,6.648,48.647,17.853
				C329.63,372.702,334.716,369.858,332.097,367.809L332.097,367.809z"/>
		</g>
	</g>
</g>
<g id="Layer_2_1_">
</g>
</svg>
