<?xml version="1.0" encoding="utf-8"?>
<!-- Generator: Adobe Illustrator 15.0.0, SVG Export Plug-In . SVG Version: 6.00 Build 0)  -->
<!DOCTYPE svg PUBLIC "-//W3C//DTD SVG 1.1//EN" "http://www.w3.org/Graphics/SVG/1.1/DTD/svg11.dtd">
<svg version="1.1" xmlns="http://www.w3.org/2000/svg" xmlns:xlink="http://www.w3.org/1999/xlink" x="0px" y="0px"
	 width="392.721px" height="261.942px" viewBox="0 0 392.721 261.942" enable-background="new 0 0 392.721 261.942"
	 xml:space="preserve">
<g id="Layer_3">
	<polygon fill="#ABABAB" points="175,95.942 283.922,193.36 108,261.942 0,154.942 	"/>
	<polygon fill="#27AAE1" points="170.191,108.021 263.263,191.262 112.941,249.863 20.658,158.435 	"/>
	<polygon fill="#009444" points="229.169,167.462 169.124,149.371 163.388,188.162 106.709,174.634 89.328,226.952 112.941,249.863 
		263.263,191.262 	"/>
	<ellipse fill="#FFF200" cx="154.76" cy="136.803" rx="18.589" ry="10.274"/>
</g>
<g id="Layer_2">
	<path d="M252.895,51.999L192.16,3.296c0,0-4.985-5.512-15.318-2.281c-9.017,2.819-84.918,29.017-84.918,29.017
		s-10.29,7.388,0.236,16.642s119.298,105.324,119.298,105.324l57.618,43.108c0,0,4.115,4.091,12.723,0s68.256-23.945,68.256-23.945
		l8.08-15.004L252.895,51.999z"/>
	<path fill="#ABABAB" d="M250.778,57.909l-42.598-35.455l-81.087,31.357l91.799,81.046l44.337,33.171c0,0,3.167,3.148,9.79,0
		c6.624-3.148,52.522-18.426,52.522-18.426l6.219-11.546L250.778,57.909z"/>
</g>
<g id="Layer_1">
	<g>
		<path fill="#FEDFBF" d="M392.721,218.591l-28.098-49.962c0,0-5.052-54.635-11.637-69.298
			c-6.584-14.663-20.744-42.06-30.669-47.101s-27.013-22.726-31.553-22.197s-22.072-9.713-33.159-8.772s-11.219,4.121-13.928,3.465
			s-10.496-4.431-12.914-2.341c-2.417,2.089-7.093,3.919-7.299,3.848s-10.962-2.462-13.229,0.292c-2.266,2.754-3.117,9.307,0,12.487
			c3.119,3.18,21.256,33.502,27.86,40.602s16.173,50.279,15.327,56.063s-2.864,7.827-6.52,8.883
			c-3.654,1.056-14.74-2.587-17.828-4.347c-3.087-1.762-19.823-11.934-28.104-13.688c-8.279-1.754-12.68-5.524-11.788,0
			c0.892,5.524,9.077,20.891,13.606,25.025s39.878,26.931,44.982,28.749c5.105,1.816,17.891,16.676,26.49,20.604
			c8.599,3.928,18.314,23.369,22.77,29.775c4.455,6.408,42.162,14.131,59.88,5.953S392.721,218.591,392.721,218.591z"/>
		<g>
			<g>
				<g>
					<path d="M367.521,167.853c-0.087-28.724-4.826-57.652-17.949-83.444c-12.265-24.105-32.059-43.185-56.089-55.412
						c-1.598-0.813-6.419,1.57-5.436,2.07c23.997,12.21,43.275,30.99,55.729,54.894c13.318,25.563,17.863,54.895,17.95,83.444
						C361.729,170.646,367.526,169.713,367.521,167.853L367.521,167.853z"/>
				</g>
			</g>
			<g>
				<g>
					<path d="M318.374,66.098c-6.397-12.556-14.084-24.595-25.122-33.575c-9.899-8.053-21.939-12.118-34.564-13.077
						c-2.441-0.186-6.092,3.329-2.164,3.627c27.211,2.067,44.328,21.563,56.056,44.577C313.69,69.833,319.354,68.02,318.374,66.098
						L318.374,66.098z"/>
				</g>
			</g>
			<g>
				<g>
					<path d="M293.483,61.457c-11.627-16.443-25.916-28.58-44.221-37.019c-1.366-0.63-6.688,1.508-4.717,2.417
						c18.03,8.312,32.067,20.496,43.5,36.666C288.923,64.76,294.512,62.912,293.483,61.457L293.483,61.457z"/>
				</g>
			</g>
			<g>
				<g>
					<path d="M271.731,66.098c-2.683-5.96-7.463-11.071-11.874-15.784c-6.354-6.788-13.41-12.998-21.039-18.313
						c-5.839-4.069-12.689-8.223-19.959-8.821c-5.041-0.415-11.638,1.275-13.779,6.436c-2.33,5.612,1.404,11.99,4.197,16.695
						c4.593,7.734,10.541,14.672,16.201,21.628c4.672,5.741,10.21,11.638,13.229,18.48c3.068,6.953,4.692,15.126,6.724,22.434
						c2.26,8.128,4.373,16.449,5.007,24.887c0.202,2.695,0.292,5.952-0.912,8.465c-1.554,3.241-6.833,1.589-9.358,0.743
						c-16.094-5.396-28.985-20.903-47.075-19.768c-2.851,0.179-4.816,3.43-0.8,3.178c9.922-0.623,19.847,6.601,27.944,11.448
						c7.161,4.286,15.052,9.486,23.706,9.504c18.294,0.039,11.763-22.207,9.078-33.181c-2.098-8.571-4.756-16.992-7.326-25.429
						c-1.923-6.312-5.48-11.241-9.527-16.42c-5.611-7.18-11.581-14.069-16.956-21.434c-3.888-5.327-9.588-12.704-8.959-19.754
						c1.197-13.417,25.749,4.91,29.437,7.829c5.804,4.593,11.186,9.737,16.198,15.176c3.722,4.038,7.771,8.493,10.049,13.554
						C266.838,69.653,272.517,67.84,271.731,66.098L271.731,66.098z"/>
				</g>
			</g>
			<g>
				<g>
					<path d="M186.287,127.3c1.412,21.131,24.576,35.226,40.474,45.393c10.436,6.672,21.177,12.855,31.528,19.661
						c8.312,5.465,16.896,11.442,22.933,19.481c1.099,1.463,6.693-0.479,5.4-2.201c-5.827-7.759-14.016-13.512-21.994-18.857
						c-10.265-6.878-20.996-13.034-31.439-19.631c-15.982-10.097-39.691-24.207-41.106-45.397
						C191.969,124.044,186.147,125.216,186.287,127.3L186.287,127.3z"/>
				</g>
			</g>
			<g>
				<g>
					<path d="M249.52,24.256c-6.849-2.1-13.267-3.529-20.195-1.019c-0.824,0.299-2.38,1.51-1.497,2.508
						c0.926,1.046,2.774,0.556,3.864,0.161c4.63-1.677,9.876,0.34,14.336,1.708C248.039,28.23,252.861,25.28,249.52,24.256
						L249.52,24.256z"/>
				</g>
			</g>
			<g>
				<g>
					<path d="M225.899,30.813c-2.63,0.534-5.101,1.343-7.298,2.928c-0.973,0.702-1.524,2.13-0.33,2.928
						c1.222,0.816,3.031,0.44,4.15-0.368c1.4-1.01,2.756-1.259,4.515-1.616c1.123-0.228,2.739-1.371,2.379-2.713
						C228.931,30.536,227.021,30.586,225.899,30.813L225.899,30.813z"/>
				</g>
			</g>
			<g>
				<g>
					<path d="M199.893,137.58c-0.492,2.302-1.326,4.512-1.818,6.815c-0.139,0.651,2.938,0.027,3.102-0.017
						c0.768-0.206,2.494-0.596,2.694-1.536c0.492-2.302,1.326-4.512,1.818-6.815c0.14-0.651-2.938-0.027-3.101,0.017
						C201.819,136.25,200.094,136.641,199.893,137.58L199.893,137.58z"/>
				</g>
			</g>
			<g>
				<g>
					<path d="M362.562,169.841c4.098,18.976,16.721,34.432,27.509,50.037c1.525,2.206,7.039-0.059,5.301-2.573
						c-10.584-15.31-22.994-30.4-27.015-49.016C367.766,165.548,361.961,167.063,362.562,169.841L362.562,169.841z"/>
				</g>
			</g>
			<g>
				<g>
					<path d="M281.228,211.189c5.062,7.748,10.643,15.19,14.539,23.627c0.798,1.729,6.434-0.17,5.795-1.553
						c-3.897-8.439-9.476-15.877-14.539-23.627C285.928,207.961,280.515,210.099,281.228,211.189L281.228,211.189z"/>
				</g>
			</g>
		</g>
	</g>
</g>
</svg>
