<?xml version="1.0" encoding="utf-8"?>
<!-- Generator: Adobe Illustrator 15.0.0, SVG Export Plug-In . SVG Version: 6.00 Build 0)  -->
<!DOCTYPE svg PUBLIC "-//W3C//DTD SVG 1.1//EN" "http://www.w3.org/Graphics/SVG/1.1/DTD/svg11.dtd">
<svg version="1.1" id="Layer_1" xmlns="http://www.w3.org/2000/svg" xmlns:xlink="http://www.w3.org/1999/xlink" x="0px" y="0px"
	 width="392.721px" height="261.941px" viewBox="0 0 392.721 261.941" enable-background="new 0 0 392.721 261.941"
	 xml:space="preserve">
<polygon fill="#FFFFFF" stroke="#000000" stroke-width="3" stroke-miterlimit="10" points="21.902,145.114 156.544,113.695 
	266.08,180.389 131.438,211.809 "/>
<g>
	<path d="M80.458,164.803l-8.647,2.331l-3.46-2.415l21.047-5.675l3.46,2.415l-8.689,2.343l28.06,19.582l-3.711,1.001L80.458,164.803
		z"/>
	<path d="M124.025,165.906l-11.051,2.979l11.364,7.93l12.317-3.32l3.414,2.383l-15.985,4.31l-31.521-21.996l15.354-4.141
		l3.414,2.383l-11.684,3.15l9.961,6.951l11.051-2.979L124.025,165.906z"/>
	<path d="M160.401,170.396l-10.595-3.885c-4.143-1.462-6.8-2.42-9.51-3.454l-0.085,0.023c1.022,1.489,1.905,2.88,3.187,5.203
		l3.505,5.752l-4.217,1.137l-7.258-13.471l-23.925-8.617l4.261-1.148l11.143,4.145c3.111,1.151,5.503,2.045,7.946,3.016l0.126-0.034
		c-1.07-1.522-1.801-2.727-2.758-4.415l-3.508-6.203l4.217-1.137l6.693,13.036l25.039,8.904L160.401,170.396z"/>
	<path d="M146.599,146.969l-8.647,2.331l-3.46-2.415l21.047-5.675l3.46,2.415l-8.688,2.343l28.06,19.582l-3.711,1.001
		L146.599,146.969z"/>
	<path d="M197.293,144.883c10.852,7.572,10.656,13.189,3.4,15.146c-7.508,2.024-19.234-1.058-28.775-7.715
		c-10.007-6.984-10.945-13.066-3.353-15.113C176.328,135.108,187.941,138.356,197.293,144.883z M175.747,151.19
		c6.734,4.7,16.058,8.023,21.837,6.465c5.82-1.569,3.171-6.601-3.984-11.595c-6.266-4.373-15.766-8.146-21.883-6.497
		C165.643,141.2,168.827,146.361,175.747,151.19z"/>
</g>
<g id="Layer_2">
	<path d="M252.895,51.999L192.16,3.296c0,0-4.985-5.512-15.318-2.281c-9.017,2.819-84.918,29.017-84.918,29.017
		s-10.29,7.389,0.236,16.643c10.525,9.254,119.298,105.324,119.298,105.324l57.618,43.107c0,0,4.114,4.091,12.723,0
		s68.256-23.944,68.256-23.944l8.08-15.005L252.895,51.999z"/>
	<path fill="#ABABAB" d="M250.778,57.909L208.18,22.454l-81.087,31.356l91.799,81.046l44.337,33.171c0,0,3.167,3.148,9.79,0
		c6.624-3.147,52.522-18.426,52.522-18.426l6.219-11.546L250.778,57.909z"/>
</g>
<g id="Layer_1_1_">
	<g>
		<path fill="#FEDFBF" d="M392.721,218.591l-28.099-49.962c0,0-5.052-54.635-11.637-69.298
			c-6.584-14.663-20.744-42.061-30.669-47.102s-27.013-22.726-31.553-22.196c-4.54,0.528-22.072-9.714-33.159-8.772
			s-11.219,4.121-13.928,3.465s-10.496-4.431-12.914-2.341c-2.417,2.089-7.093,3.919-7.299,3.848
			c-0.206-0.07-10.962-2.462-13.229,0.292c-2.266,2.754-3.116,9.308,0,12.487c3.119,3.18,21.257,33.502,27.86,40.602
			c6.604,7.101,16.173,50.279,15.327,56.063s-2.864,7.827-6.521,8.883c-3.653,1.056-14.739-2.587-17.827-4.347
			c-3.088-1.762-19.823-11.935-28.104-13.688c-8.279-1.754-12.68-5.523-11.788,0c0.893,5.524,9.077,20.892,13.606,25.025
			c4.528,4.134,39.878,26.931,44.981,28.749c5.105,1.815,17.892,16.676,26.49,20.604c8.599,3.929,18.314,23.369,22.77,29.775
			c4.455,6.408,42.162,14.131,59.88,5.953C374.628,228.453,392.721,218.591,392.721,218.591z"/>
		<g>
			<g>
				<g>
					<path d="M367.521,167.853c-0.087-28.724-4.826-57.651-17.949-83.443c-12.265-24.105-32.059-43.186-56.089-55.412
						c-1.598-0.813-6.419,1.569-5.436,2.069c23.997,12.21,43.274,30.99,55.729,54.895c13.318,25.562,17.863,54.895,17.95,83.443
						C361.729,170.646,367.526,169.713,367.521,167.853L367.521,167.853z"/>
				</g>
			</g>
			<g>
				<g>
					<path d="M318.373,66.098c-6.396-12.556-14.083-24.595-25.121-33.575c-9.899-8.053-21.939-12.118-34.564-13.077
						c-2.44-0.186-6.092,3.329-2.164,3.627c27.211,2.067,44.328,21.563,56.056,44.577C313.69,69.833,319.354,68.02,318.373,66.098
						L318.373,66.098z"/>
				</g>
			</g>
			<g>
				<g>
					<path d="M293.483,61.457c-11.627-16.443-25.916-28.58-44.221-37.02c-1.366-0.63-6.688,1.508-4.717,2.417
						c18.03,8.312,32.066,20.496,43.5,36.666C288.923,64.76,294.512,62.912,293.483,61.457L293.483,61.457z"/>
				</g>
			</g>
			<g>
				<g>
					<path d="M271.731,66.098c-2.683-5.96-7.463-11.071-11.874-15.784c-6.354-6.788-13.41-12.998-21.039-18.312
						c-5.839-4.069-12.688-8.224-19.959-8.821c-5.041-0.415-11.638,1.275-13.778,6.437c-2.33,5.611,1.403,11.989,4.196,16.694
						c4.594,7.734,10.541,14.672,16.201,21.628c4.672,5.741,10.21,11.639,13.229,18.48c3.067,6.953,4.691,15.126,6.724,22.434
						c2.26,8.128,4.373,16.449,5.007,24.887c0.202,2.695,0.292,5.952-0.912,8.466c-1.554,3.24-6.833,1.589-9.357,0.742
						c-16.094-5.396-28.985-20.902-47.075-19.768c-2.851,0.179-4.816,3.43-0.8,3.178c9.922-0.623,19.847,6.602,27.943,11.448
						c7.161,4.286,15.053,9.486,23.706,9.504c18.294,0.039,11.764-22.207,9.078-33.181c-2.098-8.571-4.756-16.992-7.326-25.429
						c-1.923-6.312-5.479-11.241-9.526-16.421c-5.611-7.18-11.581-14.068-16.956-21.434c-3.888-5.327-9.588-12.704-8.959-19.754
						c1.197-13.417,25.749,4.91,29.437,7.829c5.805,4.593,11.187,9.737,16.198,15.176c3.722,4.038,7.771,8.493,10.049,13.554
						C266.838,69.653,272.517,67.84,271.731,66.098L271.731,66.098z"/>
				</g>
			</g>
			<g>
				<g>
					<path d="M186.287,127.3c1.412,21.131,24.575,35.226,40.474,45.393c10.436,6.672,21.177,12.855,31.528,19.661
						c8.312,5.465,16.896,11.442,22.933,19.481c1.099,1.463,6.693-0.479,5.4-2.201c-5.827-7.759-14.017-13.512-21.994-18.857
						c-10.266-6.878-20.996-13.033-31.439-19.631c-15.981-10.097-39.69-24.207-41.105-45.396
						C191.969,124.044,186.147,125.216,186.287,127.3L186.287,127.3z"/>
				</g>
			</g>
			<g>
				<g>
					<path d="M249.52,24.256c-6.849-2.101-13.267-3.529-20.194-1.02c-0.824,0.3-2.381,1.511-1.497,2.509
						c0.926,1.046,2.773,0.556,3.863,0.16c4.63-1.677,9.876,0.341,14.336,1.708C248.039,28.23,252.861,25.28,249.52,24.256
						L249.52,24.256z"/>
				</g>
			</g>
			<g>
				<g>
					<path d="M225.899,30.813c-2.63,0.534-5.101,1.343-7.298,2.929c-0.973,0.701-1.523,2.13-0.33,2.928
						c1.223,0.815,3.031,0.439,4.15-0.368c1.399-1.01,2.756-1.259,4.515-1.616c1.123-0.228,2.739-1.371,2.379-2.713
						C228.931,30.536,227.021,30.586,225.899,30.813L225.899,30.813z"/>
				</g>
			</g>
			<g>
				<g>
					<path d="M199.893,137.58c-0.492,2.302-1.326,4.512-1.817,6.814c-0.14,0.651,2.938,0.027,3.102-0.017
						c0.768-0.206,2.494-0.597,2.694-1.536c0.491-2.302,1.325-4.512,1.817-6.815c0.141-0.65-2.938-0.026-3.101,0.018
						C201.819,136.25,200.094,136.641,199.893,137.58L199.893,137.58z"/>
				</g>
			</g>
			<g>
				<g>
					<path d="M362.562,169.841c4.098,18.976,16.721,34.432,27.509,50.037c1.525,2.206,7.039-0.06,5.301-2.573
						c-10.584-15.31-22.993-30.4-27.015-49.016C367.766,165.548,361.961,167.063,362.562,169.841L362.562,169.841z"/>
				</g>
			</g>
			<g>
				<g>
					<path d="M281.228,211.189c5.062,7.748,10.644,15.19,14.539,23.627c0.798,1.729,6.435-0.17,5.795-1.553
						c-3.896-8.439-9.476-15.877-14.539-23.627C285.928,207.961,280.515,210.099,281.228,211.189L281.228,211.189z"/>
				</g>
			</g>
		</g>
	</g>
</g>
</svg>
