<?xml version="1.0" encoding="utf-8"?>
<!-- Generator: Adobe Illustrator 15.0.0, SVG Export Plug-In . SVG Version: 6.00 Build 0)  -->
<!DOCTYPE svg PUBLIC "-//W3C//DTD SVG 1.1//EN" "http://www.w3.org/Graphics/SVG/1.1/DTD/svg11.dtd">
<svg version="1.1" xmlns="http://www.w3.org/2000/svg" xmlns:xlink="http://www.w3.org/1999/xlink" x="0px" y="0px"
	 width="392.721px" height="261.942px" viewBox="0 0 392.721 261.942" enable-background="new 0 0 392.721 261.942"
	 xml:space="preserve">
<g id="Layer_3">
	<polygon display="none" fill="#ABABAB" points="175,95.942 283.922,193.36 108,261.942 0,154.942 	"/>
	<polygon display="none" fill="#27AAE1" points="170.191,108.021 263.263,191.262 112.941,249.863 20.658,158.435 	"/>
	<polygon display="none" fill="#009444" points="229.169,167.462 169.124,149.371 163.388,188.162 106.709,174.634 89.328,226.952 
		112.941,249.863 263.263,191.262 	"/>
	<ellipse display="none" fill="#FFF200" cx="154.76" cy="136.803" rx="18.589" ry="10.274"/>
	<g>
		<polygon fill="#FFFFFF" stroke="#000000" stroke-width="3" stroke-miterlimit="10" points="69.67,147.839 148.049,123.664 
			235.1,198.065 156.72,222.241 		"/>
		<polygon fill="#010101" points="92.489,154.766 95.191,153.933 98.194,156.499 95.49,157.332 		"/>
		<polygon fill="#010101" points="95.191,153.933 97.892,153.099 100.896,155.664 98.194,156.499 		"/>
		<polygon fill="#010101" points="97.892,153.099 100.597,152.266 103.597,154.831 100.896,155.664 		"/>
		<polygon fill="#010101" points="100.597,152.266 103.299,151.432 106.302,153.998 103.597,154.831 		"/>
		<polygon fill="#010101" points="103.299,151.432 106.001,150.598 109.004,153.165 106.302,153.998 		"/>
		<polygon fill="#010101" points="106.001,150.598 108.706,149.765 111.706,152.33 109.004,153.165 		"/>
		<polygon fill="#010101" points="108.706,149.765 111.407,148.931 114.409,151.497 111.706,152.33 		"/>
		<polygon fill="#010101" points="119.516,146.431 122.218,145.596 125.22,148.163 122.518,148.996 		"/>
		<polygon fill="#010101" points="130.326,143.096 133.028,142.262 136.031,144.828 133.33,145.662 		"/>
		<polygon fill="#010101" points="133.028,142.262 135.733,141.429 138.733,143.994 136.031,144.828 		"/>
		<polygon fill="#010101" points="135.733,141.429 138.434,140.595 141.438,143.161 138.733,143.994 		"/>
		<polygon fill="#010101" points="138.434,140.595 141.137,139.761 144.14,142.327 141.438,143.161 		"/>
		<polygon fill="#010101" points="141.137,139.761 143.841,138.927 146.841,141.494 144.14,142.327 		"/>
		<polygon fill="#010101" points="143.841,138.927 146.543,138.094 149.544,140.66 146.841,141.494 		"/>
		<polygon fill="#010101" points="146.543,138.094 149.245,137.26 152.248,139.826 149.544,140.66 		"/>
		<polygon fill="#010101" points="95.49,157.332 98.194,156.499 101.194,159.064 98.492,159.898 		"/>
		<polygon fill="#010101" points="111.706,152.33 114.409,151.497 117.411,154.062 114.708,154.896 		"/>
		<polygon fill="#010101" points="117.112,150.663 119.814,149.829 122.818,152.395 120.114,153.229 		"/>
		<polygon fill="#010101" points="119.814,149.829 122.518,148.996 125.519,151.562 122.818,152.395 		"/>
		<polygon fill="#010101" points="122.518,148.996 125.22,148.163 128.222,150.728 125.519,151.562 		"/>
		<polygon fill="#010101" points="125.22,148.163 127.923,147.328 130.924,149.894 128.222,150.728 		"/>
		<polygon fill="#010101" points="127.923,147.328 130.625,146.495 133.628,149.061 130.924,149.894 		"/>
		<polygon fill="#010101" points="133.33,145.662 136.031,144.828 139.033,147.393 136.329,148.228 		"/>
		<polygon fill="#010101" points="149.544,140.66 152.248,139.826 155.249,142.392 152.546,143.225 		"/>
		<polygon fill="#010101" points="98.492,159.898 101.194,159.064 104.197,161.629 101.493,162.463 		"/>
		<polygon fill="#010101" points="103.896,158.23 106.601,157.396 109.6,159.962 106.898,160.796 		"/>
		<polygon fill="#010101" points="106.601,157.396 109.302,156.563 112.305,159.129 109.6,159.962 		"/>
		<polygon fill="#010101" points="109.302,156.563 112.004,155.729 115.007,158.295 112.305,159.129 		"/>
		<polygon fill="#010101" points="114.708,154.896 117.411,154.062 120.414,156.627 117.71,157.461 		"/>
		<polygon fill="#010101" points="122.818,152.395 125.519,151.562 128.521,154.127 125.817,154.96 		"/>
		<polygon fill="#010101" points="128.222,150.728 130.924,149.894 133.925,152.46 131.224,153.293 		"/>
		<polygon fill="#010101" points="130.924,149.894 133.628,149.061 136.629,151.626 133.925,152.46 		"/>
		<polygon fill="#010101" points="136.329,148.228 139.033,147.393 142.034,149.959 139.332,150.792 		"/>
		<polygon fill="#010101" points="141.736,146.56 144.438,145.726 147.44,148.292 144.735,149.125 		"/>
		<polygon fill="#010101" points="144.438,145.726 147.139,144.892 150.142,147.458 147.44,148.292 		"/>
		<polygon fill="#010101" points="147.139,144.892 149.844,144.059 152.845,146.624 150.142,147.458 		"/>
		<polygon fill="#010101" points="152.546,143.225 155.249,142.392 158.251,144.957 155.549,145.791 		"/>
		<polygon fill="#010101" points="101.493,162.463 104.197,161.629 107.198,164.195 104.494,165.028 		"/>
		<polygon fill="#010101" points="106.898,160.796 109.6,159.962 112.604,162.528 109.901,163.361 		"/>
		<polygon fill="#010101" points="109.6,159.962 112.305,159.129 115.305,161.694 112.604,162.528 		"/>
		<polygon fill="#010101" points="112.305,159.129 115.007,158.295 118.01,160.861 115.305,161.694 		"/>
		<polygon fill="#010101" points="117.71,157.461 120.414,156.627 123.414,159.194 120.711,160.026 		"/>
		<polygon fill="#010101" points="123.115,155.794 125.817,154.96 128.82,157.527 126.117,158.36 		"/>
		<polygon fill="#010101" points="125.817,154.96 128.521,154.127 131.521,156.692 128.82,157.527 		"/>
		<polygon fill="#010101" points="131.224,153.293 133.925,152.46 136.928,155.025 134.227,155.859 		"/>
		<polygon fill="#010101" points="133.925,152.46 136.629,151.626 139.63,154.192 136.928,155.025 		"/>
		<polygon fill="#010101" points="139.332,150.792 142.034,149.959 145.037,152.525 142.333,153.358 		"/>
		<polygon fill="#010101" points="144.735,149.125 147.44,148.292 150.441,150.857 147.739,151.691 		"/>
		<polygon fill="#010101" points="147.44,148.292 150.142,147.458 153.146,150.023 150.441,150.857 		"/>
		<polygon fill="#010101" points="150.142,147.458 152.845,146.624 155.848,149.19 153.146,150.023 		"/>
		<polygon fill="#010101" points="155.549,145.791 158.251,144.957 161.252,147.523 158.548,148.356 		"/>
		<polygon fill="#010101" points="104.494,165.028 107.198,164.195 110.2,166.761 107.498,167.594 		"/>
		<polygon fill="#010101" points="109.901,163.361 112.604,162.528 115.604,165.093 112.902,165.928 		"/>
		<polygon fill="#010101" points="112.604,162.528 115.305,161.694 118.308,164.26 115.604,165.093 		"/>
		<polygon fill="#010101" points="115.305,161.694 118.01,160.861 121.01,163.426 118.308,164.26 		"/>
		<polygon fill="#010101" points="120.711,160.026 123.414,159.194 126.417,161.759 123.712,162.592 		"/>
		<polygon fill="#010101" points="131.521,156.692 134.227,155.859 137.227,158.425 134.524,159.258 		"/>
		<polygon fill="#010101" points="142.333,153.358 145.037,152.525 148.037,155.09 145.335,155.924 		"/>
		<polygon fill="#010101" points="147.739,151.691 150.441,150.857 153.444,153.423 150.74,154.256 		"/>
		<polygon fill="#010101" points="150.441,150.857 153.146,150.023 156.145,152.589 153.444,153.423 		"/>
		<polygon fill="#010101" points="153.146,150.023 155.848,149.19 158.847,151.755 156.145,152.589 		"/>
		<polygon fill="#010101" points="158.548,148.356 161.252,147.523 164.254,150.088 161.552,150.921 		"/>
		<polygon fill="#010101" points="107.498,167.594 110.2,166.761 113.201,169.327 110.498,170.16 		"/>
		<polygon fill="#010101" points="123.712,162.592 126.417,161.759 129.418,164.324 126.714,165.159 		"/>
		<polygon fill="#010101" points="129.118,160.925 131.822,160.091 134.823,162.657 132.121,163.491 		"/>
		<polygon fill="#010101" points="131.822,160.091 134.524,159.258 137.525,161.824 134.823,162.657 		"/>
		<polygon fill="#010101" points="134.524,159.258 137.227,158.425 140.228,160.99 137.525,161.824 		"/>
		<polygon fill="#010101" points="137.227,158.425 139.93,157.591 142.931,160.157 140.228,160.99 		"/>
		<polygon fill="#010101" points="139.93,157.591 142.634,156.757 145.633,159.322 142.931,160.157 		"/>
		<polygon fill="#010101" points="145.335,155.924 148.037,155.09 151.04,157.655 148.336,158.49 		"/>
		<polygon fill="#010101" points="161.552,150.921 164.254,150.088 167.257,152.654 164.553,153.488 		"/>
		<polygon fill="#010101" points="110.498,170.16 113.201,169.327 116.202,171.892 113.501,172.726 		"/>
		<polygon fill="#010101" points="113.201,169.327 115.904,168.493 118.906,171.058 116.202,171.892 		"/>
		<polygon fill="#010101" points="115.904,168.493 118.608,167.659 121.609,170.225 118.906,171.058 		"/>
		<polygon fill="#010101" points="118.608,167.659 121.308,166.825 124.312,169.391 121.609,170.225 		"/>
		<polygon fill="#010101" points="121.308,166.825 124.013,165.992 127.014,168.558 124.312,169.391 		"/>
		<polygon fill="#010101" points="124.013,165.992 126.714,165.159 129.717,167.724 127.014,168.558 		"/>
		<polygon fill="#010101" points="126.714,165.159 129.418,164.324 132.419,166.89 129.717,167.724 		"/>
		<polygon fill="#010101" points="132.121,163.491 134.823,162.657 137.825,165.224 135.122,166.057 		"/>
		<polygon fill="#010101" points="137.525,161.824 140.228,160.99 143.229,163.556 140.527,164.389 		"/>
		<polygon fill="#010101" points="142.931,160.157 145.633,159.322 148.636,161.889 145.934,162.722 		"/>
		<polygon fill="#010101" points="148.336,158.49 151.04,157.655 154.042,160.222 151.337,161.055 		"/>
		<polygon fill="#010101" points="151.04,157.655 153.743,156.823 156.745,159.388 154.042,160.222 		"/>
		<polygon fill="#010101" points="153.743,156.823 156.443,155.988 159.446,158.554 156.745,159.388 		"/>
		<polygon fill="#010101" points="156.443,155.988 159.148,155.155 162.149,157.721 159.446,158.554 		"/>
		<polygon fill="#010101" points="159.148,155.155 161.85,154.321 164.854,156.887 162.149,157.721 		"/>
		<polygon fill="#010101" points="161.85,154.321 164.553,153.488 167.555,156.053 164.854,156.887 		"/>
		<polygon fill="#010101" points="164.553,153.488 167.257,152.654 170.256,155.22 167.555,156.053 		"/>
		<polygon fill="#010101" points="140.527,164.389 143.229,163.556 146.232,166.121 143.529,166.954 		"/>
		<polygon fill="#010101" points="143.229,163.556 145.934,162.722 148.935,165.288 146.232,166.121 		"/>
		<polygon fill="#010101" points="116.5,175.291 119.206,174.457 122.205,177.023 119.504,177.857 		"/>
		<polygon fill="#010101" points="119.206,174.457 121.908,173.624 124.909,176.189 122.205,177.023 		"/>
		<polygon fill="#010101" points="121.908,173.624 124.609,172.791 127.612,175.355 124.909,176.189 		"/>
		<polygon fill="#010101" points="124.609,172.791 127.312,171.957 130.314,174.522 127.612,175.355 		"/>
		<polygon fill="#010101" points="127.312,171.957 130.016,171.123 133.015,173.688 130.314,174.522 		"/>
		<polygon fill="#010101" points="132.718,170.29 135.42,169.456 138.422,172.021 135.721,172.855 		"/>
		<polygon fill="#010101" points="135.42,169.456 138.125,168.622 141.126,171.188 138.422,172.021 		"/>
		<polygon fill="#010101" points="138.125,168.622 140.826,167.789 143.829,170.354 141.126,171.188 		"/>
		<polygon fill="#010101" points="140.826,167.789 143.529,166.954 146.531,169.521 143.829,170.354 		"/>
		<polygon fill="#010101" points="146.232,166.121 148.935,165.288 151.937,167.854 149.232,168.687 		"/>
		<polygon fill="#010101" points="148.935,165.288 151.636,164.454 154.639,167.02 151.937,167.854 		"/>
		<polygon fill="#010101" points="151.636,164.454 154.341,163.621 157.341,166.187 154.639,167.02 		"/>
		<polygon fill="#010101" points="157.043,162.787 159.745,161.953 162.747,164.519 160.044,165.353 		"/>
		<polygon fill="#010101" points="162.448,161.12 165.151,160.286 168.152,162.852 165.451,163.686 		"/>
		<polygon fill="#010101" points="167.853,159.453 170.556,158.618 173.558,161.185 170.856,162.018 		"/>
		<polygon fill="#010101" points="122.205,177.023 124.909,176.189 127.91,178.755 125.208,179.588 		"/>
		<polygon fill="#010101" points="124.909,176.189 127.612,175.355 130.613,177.922 127.91,178.755 		"/>
		<polygon fill="#010101" points="127.612,175.355 130.314,174.522 133.317,177.088 130.613,177.922 		"/>
		<polygon fill="#010101" points="130.314,174.522 133.015,173.688 136.018,176.254 133.317,177.088 		"/>
		<polygon fill="#010101" points="138.422,172.021 141.126,171.188 144.127,173.753 141.425,174.587 		"/>
		<polygon fill="#010101" points="146.531,169.521 149.232,168.687 152.235,171.253 149.533,172.086 		"/>
		<polygon fill="#010101" points="154.639,167.02 157.341,166.187 160.344,168.751 157.641,169.585 		"/>
		<polygon fill="#010101" points="160.044,165.353 162.747,164.519 165.749,167.084 163.045,167.918 		"/>
		<polygon fill="#010101" points="162.747,164.519 165.451,163.686 168.453,166.251 165.749,167.084 		"/>
		<polygon fill="#010101" points="168.152,162.852 170.856,162.018 173.857,164.583 171.154,165.417 		"/>
		<polygon fill="#010101" points="170.856,162.018 173.558,161.185 176.56,163.75 173.857,164.583 		"/>
		<polygon fill="#010101" points="173.558,161.185 176.261,160.351 179.262,162.917 176.56,163.75 		"/>
		<polygon fill="#010101" points="122.505,180.422 125.208,179.588 128.209,182.155 125.506,182.989 		"/>
		<polygon fill="#010101" points="127.91,178.755 130.613,177.922 133.615,180.487 130.914,181.321 		"/>
		<polygon fill="#010101" points="133.317,177.088 136.018,176.254 139.02,178.82 136.317,179.653 		"/>
		<polygon fill="#010101" points="138.722,175.42 141.425,174.587 144.425,177.153 141.724,177.986 		"/>
		<polygon fill="#010101" points="144.127,173.753 146.829,172.92 149.832,175.485 147.128,176.318 		"/>
		<polygon fill="#010101" points="146.829,172.92 149.533,172.086 152.534,174.651 149.832,175.485 		"/>
		<polygon fill="#010101" points="149.533,172.086 152.235,171.253 155.237,173.818 152.534,174.651 		"/>
		<polygon fill="#010101" points="152.235,171.253 154.937,170.419 157.94,172.985 155.237,173.818 		"/>
		<polygon fill="#010101" points="154.937,170.419 157.641,169.585 160.642,172.151 157.94,172.985 		"/>
		<polygon fill="#010101" points="173.857,164.583 176.56,163.75 179.561,166.316 176.859,167.149 		"/>
		<polygon fill="#010101" points="125.506,182.989 128.209,182.155 131.211,184.72 128.51,185.554 		"/>
		<polygon fill="#010101" points="133.615,180.487 136.317,179.653 139.32,182.219 136.617,183.053 		"/>
		<polygon fill="#010101" points="136.317,179.653 139.02,178.82 142.021,181.386 139.32,182.219 		"/>
		<polygon fill="#010101" points="144.425,177.153 147.128,176.318 150.13,178.885 147.428,179.718 		"/>
		<polygon fill="#010101" points="147.128,176.318 149.832,175.485 152.833,178.051 150.13,178.885 		"/>
		<polygon fill="#010101" points="149.832,175.485 152.534,174.651 155.537,177.218 152.833,178.051 		"/>
		<polygon fill="#010101" points="155.237,173.818 157.94,172.985 160.94,175.55 158.238,176.384 		"/>
		<polygon fill="#010101" points="157.94,172.985 160.642,172.151 163.645,174.716 160.94,175.55 		"/>
		<polygon fill="#010101" points="160.642,172.151 163.346,171.317 166.347,173.883 163.645,174.716 		"/>
		<polygon fill="#010101" points="166.048,170.484 168.751,169.65 171.752,172.216 169.048,173.049 		"/>
		<polygon fill="#010101" points="171.454,168.817 174.156,167.982 177.159,170.549 174.455,171.382 		"/>
		<polygon fill="#010101" points="174.156,167.982 176.859,167.149 179.86,169.714 177.159,170.549 		"/>
		<polygon fill="#010101" points="142.021,181.386 144.725,180.552 147.726,183.118 145.024,183.951 		"/>
		<polygon fill="#010101" points="144.725,180.552 147.428,179.718 150.429,182.284 147.726,183.118 		"/>
		<polygon fill="#010101" points="150.13,178.885 152.833,178.051 155.834,180.617 153.133,181.451 		"/>
		<polygon fill="#010101" points="152.833,178.051 155.537,177.218 158.537,179.783 155.834,180.617 		"/>
		<polygon fill="#010101" points="160.94,175.55 163.645,174.716 166.645,177.283 163.943,178.116 		"/>
		<polygon fill="#010101" points="166.347,173.883 169.048,173.049 172.051,175.615 169.35,176.449 		"/>
		<polygon fill="#010101" points="169.048,173.049 171.752,172.216 174.753,174.781 172.051,175.615 		"/>
		<polygon fill="#010101" points="174.455,171.382 177.159,170.549 180.161,173.114 177.457,173.947 		"/>
		<polygon fill="#010101" points="153.133,181.451 155.834,180.617 158.836,183.182 156.132,184.016 		"/>
		<polygon fill="#010101" points="158.537,179.783 161.241,178.95 164.242,181.515 161.54,182.349 		"/>
		<polygon fill="#010101" points="166.645,177.283 169.35,176.449 172.35,179.014 169.648,179.848 		"/>
		<polygon fill="#010101" points="172.051,175.615 174.753,174.781 177.756,177.347 175.053,178.18 		"/>
		<polygon fill="#010101" points="174.753,174.781 177.457,173.947 180.458,176.514 177.756,177.347 		"/>
		<polygon fill="#010101" points="177.457,173.947 180.161,173.114 183.162,175.68 180.458,176.514 		"/>
		<polygon fill="#010101" points="180.161,173.114 182.861,172.28 185.863,174.846 183.162,175.68 		"/>
		<polygon fill="#010101" points="182.861,172.28 185.565,171.447 188.567,174.012 185.863,174.846 		"/>
		<polygon fill="#010101" points="185.565,171.447 188.269,170.613 191.268,173.179 188.567,174.012 		"/>
		<polygon fill="#010101" points="134.512,190.685 137.214,189.852 140.218,192.417 137.514,193.25 		"/>
		<polygon fill="#010101" points="137.214,189.852 139.917,189.018 142.919,191.583 140.218,192.417 		"/>
		<polygon fill="#010101" points="139.917,189.018 142.621,188.184 145.621,190.749 142.919,191.583 		"/>
		<polygon fill="#010101" points="142.621,188.184 145.323,187.35 148.324,189.917 145.621,190.749 		"/>
		<polygon fill="#010101" points="145.323,187.35 148.025,186.517 151.028,189.083 148.324,189.917 		"/>
		<polygon fill="#010101" points="148.025,186.517 150.729,185.683 153.729,188.249 151.028,189.083 		"/>
		<polygon fill="#010101" points="150.729,185.683 153.432,184.85 156.433,187.415 153.729,188.249 		"/>
		<polygon fill="#010101" points="156.132,184.016 158.836,183.182 161.838,185.748 159.136,186.582 		"/>
		<polygon fill="#010101" points="158.836,183.182 161.54,182.349 164.541,184.915 161.838,185.748 		"/>
		<polygon fill="#010101" points="164.242,181.515 166.944,180.682 169.946,183.248 167.244,184.081 		"/>
		<polygon fill="#010101" points="166.944,180.682 169.648,179.848 172.649,182.413 169.946,183.248 		"/>
		<polygon fill="#010101" points="169.648,179.848 172.35,179.014 175.353,181.58 172.649,182.413 		"/>
		<polygon fill="#010101" points="175.053,178.18 177.756,177.347 180.756,179.913 178.055,180.746 		"/>
		<polygon fill="#010101" points="180.458,176.514 183.162,175.68 186.163,178.245 183.459,179.079 		"/>
		<polygon fill="#010101" points="183.162,175.68 185.863,174.846 188.865,177.412 186.163,178.245 		"/>
		<polygon fill="#010101" points="185.863,174.846 188.567,174.012 191.568,176.578 188.865,177.412 		"/>
		<polygon fill="#010101" points="137.514,193.25 140.218,192.417 143.217,194.982 140.515,195.816 		"/>
		<polygon fill="#010101" points="153.729,188.249 156.433,187.415 159.434,189.98 156.732,190.814 		"/>
		<polygon fill="#010101" points="161.838,185.748 164.541,184.915 167.542,187.479 164.84,188.313 		"/>
		<polygon fill="#010101" points="164.541,184.915 167.244,184.081 170.244,186.646 167.542,187.479 		"/>
		<polygon fill="#010101" points="167.244,184.081 169.946,183.248 172.949,185.813 170.244,186.646 		"/>
		<polygon fill="#010101" points="169.946,183.248 172.649,182.413 175.651,184.979 172.949,185.813 		"/>
		<polygon fill="#010101" points="183.459,179.079 186.163,178.245 189.166,180.811 186.461,181.644 		"/>
		<polygon fill="#010101" points="186.163,178.245 188.865,177.412 191.867,179.977 189.166,180.811 		"/>
		<polygon fill="#010101" points="140.515,195.816 143.217,194.982 146.22,197.548 143.518,198.382 		"/>
		<polygon fill="#010101" points="145.92,194.149 148.624,193.315 151.625,195.88 148.921,196.714 		"/>
		<polygon fill="#010101" points="148.624,193.315 151.325,192.481 154.329,195.047 151.625,195.88 		"/>
		<polygon fill="#010101" points="151.325,192.481 154.03,191.648 157.03,194.213 154.329,195.047 		"/>
		<polygon fill="#010101" points="156.732,190.814 159.434,189.98 162.437,192.546 159.732,193.379 		"/>
		<polygon fill="#010101" points="162.137,189.147 164.84,188.313 167.84,190.879 165.139,191.712 		"/>
		<polygon fill="#010101" points="167.542,187.479 170.244,186.646 173.248,189.212 170.544,190.045 		"/>
		<polygon fill="#010101" points="170.244,186.646 172.949,185.813 175.949,188.378 173.248,189.212 		"/>
		<polygon fill="#010101" points="178.353,184.146 181.057,183.312 184.058,185.877 181.356,186.71 		"/>
		<polygon fill="#010101" points="181.057,183.312 183.76,182.478 186.76,185.043 184.058,185.877 		"/>
		<polygon fill="#010101" points="143.518,198.382 146.22,197.548 149.222,200.114 146.518,200.948 		"/>
		<polygon fill="#010101" points="148.921,196.714 151.625,195.88 154.627,198.447 151.925,199.28 		"/>
		<polygon fill="#010101" points="151.625,195.88 154.329,195.047 157.328,197.613 154.627,198.447 		"/>
		<polygon fill="#010101" points="154.329,195.047 157.03,194.213 160.034,196.779 157.328,197.613 		"/>
		<polygon fill="#010101" points="159.732,193.379 162.437,192.546 165.439,195.112 162.735,195.946 		"/>
		<polygon fill="#010101" points="165.139,191.712 167.84,190.879 170.844,193.445 168.14,194.278 		"/>
		<polygon fill="#010101" points="167.84,190.879 170.544,190.045 173.545,192.611 170.844,193.445 		"/>
		<polygon fill="#010101" points="170.544,190.045 173.248,189.212 176.249,191.777 173.545,192.611 		"/>
		<polygon fill="#010101" points="184.058,185.877 186.76,185.043 189.762,187.609 187.061,188.443 		"/>
		<polygon fill="#010101" points="186.76,185.043 189.463,184.21 192.464,186.775 189.762,187.609 		"/>
		<polygon fill="#010101" points="189.463,184.21 192.166,183.376 195.168,185.942 192.464,186.775 		"/>
		<polygon fill="#010101" points="192.166,183.376 194.868,182.542 197.871,185.109 195.168,185.942 		"/>
		<polygon fill="#010101" points="194.868,182.542 197.572,181.709 200.574,184.275 197.871,185.109 		"/>
		<polygon fill="#010101" points="146.518,200.948 149.222,200.114 152.223,202.679 149.52,203.512 		"/>
		<polygon fill="#010101" points="151.925,199.28 154.627,198.447 157.63,201.012 154.925,201.846 		"/>
		<polygon fill="#010101" points="154.627,198.447 157.328,197.613 160.331,200.178 157.63,201.012 		"/>
		<polygon fill="#010101" points="157.328,197.613 160.034,196.779 163.033,199.344 160.331,200.178 		"/>
		<polygon fill="#010101" points="162.735,195.946 165.439,195.112 168.44,197.677 165.738,198.511 		"/>
		<polygon fill="#010101" points="168.14,194.278 170.844,193.445 173.845,196.011 171.142,196.844 		"/>
		<polygon fill="#010101" points="173.545,192.611 176.249,191.777 179.25,194.343 176.548,195.176 		"/>
		<polygon fill="#010101" points="176.249,191.777 178.952,190.944 181.954,193.509 179.25,194.343 		"/>
		<polygon fill="#010101" points="178.952,190.944 181.654,190.111 184.655,192.676 181.954,193.509 		"/>
		<polygon fill="#010101" points="192.464,186.775 195.168,185.942 198.168,188.508 195.467,189.341 		"/>
		<polygon fill="#010101" points="195.168,185.942 197.871,185.109 200.874,187.674 198.168,188.508 		"/>
		<polygon fill="#010101" points="149.52,203.512 152.223,202.679 155.226,205.245 152.521,206.078 		"/>
		<polygon fill="#010101" points="165.738,198.511 168.44,197.677 171.441,200.243 168.738,201.077 		"/>
		<polygon fill="#010101" points="171.142,196.844 173.845,196.011 176.847,198.576 174.144,199.409 		"/>
		<polygon fill="#010101" points="179.25,194.343 181.954,193.509 184.954,196.075 182.251,196.909 		"/>
		<polygon fill="#010101" points="181.954,193.509 184.655,192.676 187.657,195.242 184.954,196.075 		"/>
		<polygon fill="#010101" points="184.655,192.676 187.358,191.842 190.361,194.408 187.657,195.242 		"/>
		<polygon fill="#010101" points="190.06,191.008 192.765,190.175 195.765,192.741 193.063,193.574 		"/>
		<polygon fill="#010101" points="192.765,190.175 195.467,189.341 198.469,191.907 195.765,192.741 		"/>
		<polygon fill="#010101" points="195.467,189.341 198.168,188.508 201.171,191.073 198.469,191.907 		"/>
		<polygon fill="#010101" points="198.168,188.508 200.874,187.674 203.873,190.24 201.171,191.073 		"/>
		<polygon fill="#010101" points="152.521,206.078 155.226,205.245 158.226,207.81 155.524,208.645 		"/>
		<polygon fill="#010101" points="155.226,205.245 157.928,204.411 160.93,206.977 158.226,207.81 		"/>
		<polygon fill="#010101" points="157.928,204.411 160.629,203.578 163.632,206.143 160.93,206.977 		"/>
		<polygon fill="#010101" points="160.629,203.578 163.333,202.744 166.335,205.31 163.632,206.143 		"/>
		<polygon fill="#010101" points="163.333,202.744 166.037,201.911 169.036,204.476 166.335,205.31 		"/>
		<polygon fill="#010101" points="166.037,201.911 168.738,201.077 171.741,203.643 169.036,204.476 		"/>
		<polygon fill="#010101" points="168.738,201.077 171.441,200.243 174.443,202.809 171.741,203.643 		"/>
		<polygon fill="#010101" points="174.144,199.409 176.847,198.576 179.848,201.142 177.145,201.975 		"/>
		<polygon fill="#010101" points="176.847,198.576 179.549,197.742 182.551,200.308 179.848,201.142 		"/>
		<polygon fill="#010101" points="190.361,194.408 193.063,193.574 196.065,196.14 193.362,196.974 		"/>
		<polygon fill="#010101" points="193.063,193.574 195.765,192.741 198.768,195.306 196.065,196.14 		"/>
		<polygon fill="#010101" points="203.873,190.24 206.574,189.406 209.578,191.972 206.877,192.805 		"/>
	</g>
</g>
<g id="Layer_2">
	<path d="M252.895,51.999L192.16,3.296c0,0-4.985-5.512-15.318-2.281c-9.017,2.819-84.918,29.017-84.918,29.017
		s-10.29,7.388,0.236,16.642s119.298,105.324,119.298,105.324l57.618,43.108c0,0,4.115,4.091,12.723,0s68.256-23.945,68.256-23.945
		l8.08-15.004L252.895,51.999z"/>
	<path fill="#ABABAB" d="M250.778,57.909l-42.598-35.455l-81.087,31.357l91.799,81.046l44.337,33.171c0,0,3.167,3.148,9.79,0
		c6.624-3.148,52.522-18.426,52.522-18.426l6.219-11.546L250.778,57.909z"/>
</g>
<g id="Layer_1">
	<g>
		<path fill="#FEDFBF" d="M392.721,218.591l-28.098-49.962c0,0-5.052-54.635-11.637-69.298
			c-6.584-14.663-20.744-42.06-30.669-47.101s-27.013-22.726-31.553-22.197s-22.072-9.713-33.159-8.772s-11.219,4.121-13.928,3.465
			s-10.496-4.431-12.914-2.341c-2.417,2.089-7.093,3.919-7.299,3.848s-10.962-2.462-13.229,0.292c-2.266,2.754-3.117,9.307,0,12.487
			c3.119,3.18,21.256,33.502,27.86,40.602s16.173,50.279,15.327,56.063s-2.864,7.827-6.52,8.883
			c-3.654,1.056-14.74-2.587-17.828-4.347c-3.087-1.762-19.823-11.934-28.104-13.688c-8.279-1.754-12.68-5.524-11.788,0
			c0.892,5.524,9.077,20.891,13.606,25.025s39.878,26.931,44.982,28.749c5.105,1.816,17.891,16.676,26.49,20.604
			c8.599,3.928,18.314,23.369,22.77,29.775c4.455,6.408,42.162,14.131,59.88,5.953S392.721,218.591,392.721,218.591z"/>
		<g>
			<g>
				<g>
					<path d="M367.521,167.853c-0.087-28.724-4.826-57.652-17.949-83.444c-12.265-24.105-32.059-43.185-56.089-55.412
						c-1.598-0.813-6.419,1.57-5.436,2.07c23.997,12.21,43.275,30.99,55.729,54.894c13.318,25.563,17.863,54.895,17.95,83.444
						C361.729,170.646,367.526,169.713,367.521,167.853L367.521,167.853z"/>
				</g>
			</g>
			<g>
				<g>
					<path d="M318.374,66.098c-6.397-12.556-14.084-24.595-25.122-33.575c-9.899-8.053-21.939-12.118-34.564-13.077
						c-2.441-0.186-6.092,3.329-2.164,3.627c27.211,2.067,44.328,21.563,56.056,44.577C313.69,69.833,319.354,68.02,318.374,66.098
						L318.374,66.098z"/>
				</g>
			</g>
			<g>
				<g>
					<path d="M293.483,61.457c-11.627-16.443-25.916-28.58-44.221-37.019c-1.366-0.63-6.688,1.508-4.717,2.417
						c18.03,8.312,32.067,20.496,43.5,36.666C288.923,64.76,294.512,62.912,293.483,61.457L293.483,61.457z"/>
				</g>
			</g>
			<g>
				<g>
					<path d="M271.731,66.098c-2.683-5.96-7.463-11.071-11.874-15.784c-6.354-6.788-13.41-12.998-21.039-18.313
						c-5.839-4.069-12.689-8.223-19.959-8.821c-5.041-0.415-11.638,1.275-13.779,6.436c-2.33,5.612,1.404,11.99,4.197,16.695
						c4.593,7.734,10.541,14.672,16.201,21.628c4.672,5.741,10.21,11.638,13.229,18.48c3.068,6.953,4.692,15.126,6.724,22.434
						c2.26,8.128,4.373,16.449,5.007,24.887c0.202,2.695,0.292,5.952-0.912,8.465c-1.554,3.241-6.833,1.589-9.358,0.743
						c-16.094-5.396-28.985-20.903-47.075-19.768c-2.851,0.179-4.816,3.43-0.8,3.178c9.922-0.623,19.847,6.601,27.944,11.448
						c7.161,4.286,15.052,9.486,23.706,9.504c18.294,0.039,11.763-22.207,9.078-33.181c-2.098-8.571-4.756-16.992-7.326-25.429
						c-1.923-6.312-5.48-11.241-9.527-16.42c-5.611-7.18-11.581-14.069-16.956-21.434c-3.888-5.327-9.588-12.704-8.959-19.754
						c1.197-13.417,25.749,4.91,29.437,7.829c5.804,4.593,11.186,9.737,16.198,15.176c3.722,4.038,7.771,8.493,10.049,13.554
						C266.838,69.653,272.517,67.84,271.731,66.098L271.731,66.098z"/>
				</g>
			</g>
			<g>
				<g>
					<path d="M186.287,127.3c1.412,21.131,24.576,35.226,40.474,45.393c10.436,6.672,21.177,12.855,31.528,19.661
						c8.312,5.465,16.896,11.442,22.933,19.481c1.099,1.463,6.693-0.479,5.4-2.201c-5.827-7.759-14.016-13.512-21.994-18.857
						c-10.265-6.878-20.996-13.034-31.439-19.631c-15.982-10.097-39.691-24.207-41.106-45.397
						C191.969,124.044,186.147,125.216,186.287,127.3L186.287,127.3z"/>
				</g>
			</g>
			<g>
				<g>
					<path d="M249.52,24.256c-6.849-2.1-13.267-3.529-20.195-1.019c-0.824,0.299-2.38,1.51-1.497,2.508
						c0.926,1.046,2.774,0.556,3.864,0.161c4.63-1.677,9.876,0.34,14.336,1.708C248.039,28.23,252.861,25.28,249.52,24.256
						L249.52,24.256z"/>
				</g>
			</g>
			<g>
				<g>
					<path d="M225.899,30.813c-2.63,0.534-5.101,1.343-7.298,2.928c-0.973,0.702-1.524,2.13-0.33,2.928
						c1.222,0.816,3.031,0.44,4.15-0.368c1.4-1.01,2.756-1.259,4.515-1.616c1.123-0.228,2.739-1.371,2.379-2.713
						C228.931,30.536,227.021,30.586,225.899,30.813L225.899,30.813z"/>
				</g>
			</g>
			<g>
				<g>
					<path d="M199.893,137.58c-0.492,2.302-1.326,4.512-1.818,6.815c-0.139,0.651,2.938,0.027,3.102-0.017
						c0.768-0.206,2.494-0.596,2.694-1.536c0.492-2.302,1.326-4.512,1.818-6.815c0.14-0.651-2.938-0.027-3.101,0.017
						C201.819,136.25,200.094,136.641,199.893,137.58L199.893,137.58z"/>
				</g>
			</g>
			<g>
				<g>
					<path d="M362.562,169.841c4.098,18.976,16.721,34.432,27.509,50.037c1.525,2.206,7.039-0.059,5.301-2.573
						c-10.584-15.31-22.994-30.4-27.015-49.016C367.766,165.548,361.961,167.063,362.562,169.841L362.562,169.841z"/>
				</g>
			</g>
			<g>
				<g>
					<path d="M281.228,211.189c5.062,7.748,10.643,15.19,14.539,23.627c0.798,1.729,6.434-0.17,5.795-1.553
						c-3.897-8.439-9.476-15.877-14.539-23.627C285.928,207.961,280.515,210.099,281.228,211.189L281.228,211.189z"/>
				</g>
			</g>
		</g>
	</g>
</g>
</svg>
